#!OML:ASF H:\GeneralSubjects\Female5\Project 1\Capture day 1\Session 1\Female5.ASF
:FULLY-SPECIFIED
:DEGREES
62
root -14.0966 16.1536 2.7944 -169.95 -6.73068 -176.662
lowerback 8.3801 2.75653 2.1791
upperback -9.75679 3.55833 0.392872
thorax -15.4618 1.18419 -1.46803
lowerneck -17.8495 0.797662 0.779038
upperneck 34.0415 -0.97183 -0.909012
head 14.776 -1.25376 -0.898431
rclavicle 3.07433e-014 2.5345e-015
rhumerus -55.6133 19.0105 -88.5786
rradius 33.3548
rwrist 1.49277
rhand -24.4282 -17.8744
rfingers 7.12502
rthumb 2.06381 -47.8441
lclavicle 3.07433e-014 2.5345e-015
lhumerus -51.2356 1.23213 72.7963
lradius 33.9386
lwrist -3.70651
lhand -25.4208 32.7358
lfingers 7.12502
lthumb 1.10514 62.7126
rfemur -1.12407 22.8141 35.1697
rtibia -2.37204
rfoot -32.2088 -29.5087
rtoes 8.91654
lfemur -8.32328 -25.6366 -23.4208
ltibia 8.29316
lfoot -22.4659 -3.14375
ltoes -20.7769
63
root -14.0823 16.1548 2.77831 -169.792 -6.94043 -176.736
lowerback 8.53391 2.71653 2.19354
upperback -9.74857 3.51411 0.366411
thorax -15.5504 1.16023 -1.50443
lowerneck -17.8644 0.69633 0.687023
upperneck 33.9247 -1.07823 -0.87967
head 14.7245 -1.29782 -0.884452
rclavicle -4.00737e-014 -5.36719e-015
rhumerus -55.7542 18.697 -88.406
rradius 33.2523
rwrist 1.87094
rhand -24.5124 -17.5295
rfingers 7.12502
rthumb 1.98245 -47.5
lclavicle -4.00737e-014 -5.36719e-015
lhumerus -51.4225 0.938958 73.0232
lradius 34.091
lwrist -3.17949
lhand -25.7983 32.9914
lfingers 7.12502
lthumb 0.740574 62.9699
rfemur -1.57449 21.8165 35.0025
rtibia -2.01291
rfoot -31.2591 -29.3578
rtoes 6.40316
lfemur -8.76253 -25.3103 -23.3373
ltibia 8.72593
lfoot -22.1509 -3.5314
ltoes -20.0101
64
root -14.0674 16.1542 2.7606 -169.634 -7.12305 -176.81
lowerback 8.64129 2.6478 2.15458
upperback -9.72375 3.42463 0.374199
thorax -15.596 1.12534 -1.46037
lowerneck -17.7921 0.653891 0.509768
upperneck 33.7844 -1.12666 -0.697365
head 14.6449 -1.30885 -0.78164
rclavicle 4.98825e-014 8.44835e-016
rhumerus -55.8392 18.4727 -88.3064
rradius 33.1791
rwrist 2.37266
rhand -24.4373 -17.7557
rfingers 7.12502
rthumb 2.05507 -47.7256
lclavicle 4.98825e-014 8.44835e-016
lhumerus -51.6241 1.00478 73.0719
lradius 34.2413
lwrist -2.91997
lhand -26.1329 33.3095
lfingers 7.12502
lthumb 0.417348 63.2889
rfemur -2.01901 20.7366 34.8505
rtibia -1.67375
rfoot -30.183 -29.1533
rtoes 3.99584
lfemur -9.20419 -24.9013 -23.2593
ltibia 9.20719
lfoot -21.9662 -4.06951
ltoes -19.3805
65
root -14.0499 16.1516 2.74444 -169.411 -7.30455 -176.881
lowerback 8.69107 2.59149 2.13771
upperback -9.68368 3.35135 0.355494
thorax -15.5814 1.0957 -1.45865
lowerneck -17.894 0.592947 0.420248
upperneck 33.694 -1.20534 -0.5732
head 14.6273 -1.32561 -0.725497
rclavicle 5.84862e-015 2.27111e-014
rhumerus -56.175 18.471 -88.4409
rradius 33.4842
rwrist 2.46393
rhand -24.4348 -18.1443
rfingers 7.12502
rthumb 2.05743 -48.1141
lclavicle 5.84862e-015 2.27111e-014
lhumerus -51.692 1.05567 73.1419
lradius 34.2868
lwrist -3.00174
lhand -26.3621 33.3748
lfingers 7.12502
lthumb 0.19597 63.3545
rfemur -2.63401 19.6745 34.6783
rtibia -1.12949
rfoot -29.4112 -28.6398
rtoes 2.27939
lfemur -9.84234 -24.435 -23.1187
ltibia 9.85785
lfoot -21.7256 -4.68521
ltoes -18.5022
66
root -14.0325 16.1475 2.72941 -169.159 -7.47903 -176.985
lowerback 8.77911 2.53587 2.0731
upperback -9.65157 3.27443 0.353953
thorax -15.6057 1.06983 -1.41212
lowerneck -18.0915 0.483007 0.401902
upperneck 33.6272 -1.33728 -0.566078
head 14.6407 -1.37078 -0.740444
rclavicle -2.29193e-014 -1.43622e-014
rhumerus -56.7484 18.6482 -88.6726
rradius 34.0189
rwrist 2.12136
rhand -24.8478 -18.2807
rfingers 7.12502
rthumb 1.65855 -48.254
lclavicle -2.29193e-014 -1.43622e-014
lhumerus -51.7909 1.18333 73.2778
lradius 34.3475
lwrist -3.19883
lhand -26.4816 33.3879
lfingers 7.12502
lthumb 0.0806018 63.3676
rfemur -3.46173 18.0877 34.4032
rtibia -0.287448
rfoot -28.5133 -27.5979
rtoes 0.556059
lfemur -10.5918 -23.9433 -23.0008
ltibia 10.6529
lfoot -21.3418 -5.22606
ltoes -17.1565
67
root -14.0155 16.1419 2.71414 -168.968 -7.62831 -177.033
lowerback 8.94951 2.44712 2.01732
upperback -9.60222 3.16742 0.422118
thorax -15.6672 1.03459 -1.28914
lowerneck -18.2624 0.402951 0.406032
upperneck 33.541 -1.4191 -0.59649
head 14.6391 -1.39769 -0.765596
rclavicle 1.53841e-014 6.65929e-015
rhumerus -57.1231 18.7427 -88.8389
rradius 34.3045
rwrist 1.78573
rhand -25.2729 -18.4612
rfingers 7.12502
rthumb 1.24803 -48.4373
lclavicle 1.53841e-014 6.65929e-015
lhumerus -52.0513 1.62002 73.3122
lradius 34.6051
lwrist -3.49882
lhand -26.3572 33.5823
lfingers 7.12502
lthumb 0.200767 63.562
rfemur -4.37446 16.2651 34.2001
rtibia 0.865901
rfoot -27.6906 -26.2686
rtoes -1.18309
lfemur -11.3551 -23.325 -22.8531
ltibia 11.629
lfoot -20.9494 -5.66713
ltoes -19.134
68
root -14.0025 16.133 2.70346 -168.77 -7.76804 -177.041
lowerback 9.16201 2.34616 2.03777
upperback -9.52148 3.06357 0.506095
thorax -15.7139 0.995831 -1.19268
lowerneck -18.5919 0.326411 0.380795
upperneck 33.4611 -1.4964 -0.557977
head 14.6772 -1.41065 -0.757149
rclavicle 1.83938e-014 1.84621e-014
rhumerus -57.2781 18.7604 -88.9264
rradius 34.4186
rwrist 1.44639
rhand -25.3718 -18.5061
rfingers 7.12502
rthumb 1.15249 -48.4827
lclavicle 1.83938e-014 1.84621e-014
lhumerus -52.2496 1.90738 73.52
lradius 34.8631
lwrist -3.69151
lhand -26.6631 33.7309
lfingers 7.12502
lthumb -0.0947405 63.7106
rfemur -5.56505 14.0264 33.9841
rtibia 2.39131
rfoot -27.1888 -24.1778
rtoes -1.56856
lfemur -12.3594 -22.6264 -22.6787
ltibia 12.9809
lfoot -20.5883 -6.47878
ltoes -21.2411
69
root -13.9926 16.1183 2.69931 -168.469 -7.86337 -177.07
lowerback 9.37097 2.25212 2.08315
upperback -9.45139 2.97102 0.585981
thorax -15.7691 0.958079 -1.11634
lowerneck -18.9108 0.208168 0.253761
upperneck 33.2547 -1.62146 -0.39496
head 14.6567 -1.43208 -0.684274
rclavicle -1.87914e-014 -2.73329e-015
rhumerus -57.3958 18.7511 -88.9317
rradius 34.5774
rwrist 1.27894
rhand -25.4834 -18.0307
rfingers 7.12502
rthumb 1.04472 -48.0079
lclavicle -1.87914e-014 -2.73329e-015
lhumerus -52.3478 1.97455 73.9618
lradius 35.0452
lwrist -3.59633
lhand -26.9249 33.7659
lfingers 7.12502
lthumb -0.347567 63.7454
rfemur -7.35045 11.2228 33.7069
rtibia 4.68354
rfoot -26.5853 -21.4672
rtoes -2.00438
lfemur -13.8023 -21.7622 -22.5095
ltibia 14.8947
lfoot -20.1393 -7.76189
ltoes -20.7747
70
root -13.9811 16.0957 2.69729 -168.128 -7.83744 -177.136
lowerback 9.59054 2.15682 2.09904
upperback -9.36235 2.87324 0.659646
thorax -15.8091 0.922188 -1.02916
lowerneck -19.152 0.113206 0.180813
upperneck 32.9379 -1.67579 -0.346302
head 14.5673 -1.42987 -0.652011
rclavicle 5.15598e-016 2.127e-014
rhumerus -57.5128 18.7685 -88.9874
rradius 34.6869
rwrist 1.18486
rhand -25.679 -17.6886
rfingers 7.12502
rthumb 0.855765 -47.6666
lclavicle 5.15598e-016 2.127e-014
lhumerus -52.4452 2.04038 74.4195
lradius 35.329
lwrist -3.51766
lhand -26.6333 33.6113
lfingers 7.12502
lthumb -0.0658912 63.591
rfemur -9.53982 8.37325 33.5361
rtibia 7.68882
rfoot -24.9724 -19.8079
rtoes -8.40681
lfemur -15.4906 -20.6009 -22.3868
ltibia 17.2316
lfoot -19.8025 -8.61516
ltoes -24.9084
71
root -13.9662 16.0648 2.6969 -167.833 -7.68498 -177.219
lowerback 9.90293 2.08604 2.0695
upperback -9.22711 2.80897 0.711869
thorax -15.8523 0.908927 -0.951548
lowerneck -19.5424 0.0102071 0.172988
upperneck 32.683 -1.75369 -0.331307
head 14.5392 -1.43277 -0.65184
rclavicle -2.38914e-014 2.98177e-015
rhumerus -57.5837 18.7452 -89.0665
rradius 34.688
rwrist 1.03691
rhand -25.7424 -16.9643
rfingers 7.12502
rthumb 0.794529 -46.9425
lclavicle -2.38914e-014 2.98177e-015
lhumerus -52.5076 2.12524 74.852
lradius 35.7332
lwrist -3.72502
lhand -26.3592 33.3788
lfingers 7.12502
lthumb 0.198827 63.3585
rfemur -11.7918 6.70171 33.4441
rtibia 11.1312
rfoot -24.0615 -19.0737
rtoes -15.6029
lfemur -17.1596 -19.4762 -22.2763
ltibia 19.5535
lfoot -19.4172 -9.81169
ltoes -22.3563
72
root -13.9487 16.0236 2.70049 -167.491 -7.47088 -177.354
lowerback 10.2434 2.05388 1.86724
upperback -9.09815 2.77208 0.800787
thorax -15.9313 0.929606 -0.742819
lowerneck -19.8272 -0.154282 0.112192
upperneck 32.2452 -1.8774 -0.321689
head 14.4053 -1.45685 -0.647306
rclavicle 1.41572e-014 1.37161e-014
rhumerus -57.5913 18.8045 -89.1505
rradius 34.7142
rwrist 0.601961
rhand -25.8112 -15.7766
rfingers 7.12502
rthumb 0.72806 -45.7551
lclavicle 1.41572e-014 1.37161e-014
lhumerus -52.5328 2.0742 75.4646
lradius 36.2454
lwrist -3.92682
lhand -26.1895 33.3207
lfingers 7.12502
lthumb 0.362698 63.3001
rfemur -14.0606 6.23188 33.2229
rtibia 14.7557
rfoot -25.5814 -17.1257
rtoes -12.9225
lfemur -18.9208 -18.4414 -22.254
ltibia 22.0819
lfoot -19.1926 -11.1837
ltoes -20.5083
73
root -13.929 15.966 2.70689 -167.114 -7.18916 -177.591
lowerback 10.6062 2.01821 1.48059
upperback -8.96256 2.70007 0.911048
thorax -16.0274 0.956777 -0.39854
lowerneck -20.0636 -0.318925 -0.025259
upperneck 31.7455 -1.95845 -0.339207
head 14.2352 -1.47578 -0.631458
rclavicle -5.90763e-015 -3.06128e-014
rhumerus -57.7337 19.2919 -89.4327
rradius 34.9871
rwrist -0.305966
rhand -25.729 -15.5573
rfingers 7.12502
rthumb 0.80748 -45.5355
lclavicle -5.90763e-015 -3.06128e-014
lhumerus -52.4606 1.83892 76.2267
lradius 36.8059
lwrist -3.90996
lhand -26.1161 33.406
lfingers 7.12502
lthumb 0.433604 63.3853
rfemur -16.3074 5.46463 32.9149
rtibia 18.2273
rfoot -26.5946 -14.8874
rtoes -10.2277
lfemur -20.8066 -17.4901 -22.4093
ltibia 24.9049
lfoot -19.2023 -12.4941
ltoes -20.2395
74
root -13.911 15.8857 2.71911 -166.778 -6.81684 -177.88
lowerback 11.1325 1.94538 1.14335
upperback -8.8489 2.58217 0.977909
thorax -16.2515 0.952346 -0.123404
lowerneck -20.4577 -0.490451 -0.381982
upperneck 31.5318 -2.10627 -0.0886069
head 14.2345 -1.52346 -0.491305
rclavicle 3.33213e-014 1.61016e-014
rhumerus -58.0134 19.7459 -89.6573
rradius 35.3571
rwrist -0.81292
rhand -25.3815 -15.6813
rfingers 7.12502
rthumb 1.14309 -45.658
lclavicle 3.33213e-014 1.61016e-014
lhumerus -52.3153 1.59541 76.9047
lradius 37.3627
lwrist -3.85257
lhand -26.0687 33.3356
lfingers 7.12502
lthumb 0.47938 63.3148
rfemur -18.5828 4.69601 32.658
rtibia 21.7215
rfoot -26.8491 -13.6272
rtoes -11.3466
lfemur -22.857 -16.7026 -22.6864
ltibia 28.0802
lfoot -19.5004 -13.7075
ltoes -21.0337
75
root -13.8951 15.7783 2.73917 -166.399 -6.39261 -178.199
lowerback 11.7252 1.87104 0.871221
upperback -8.80148 2.46248 1.01833
thorax -16.5956 0.934046 0.0869072
lowerneck -21.1433 -0.723689 -0.884067
upperneck 31.5299 -2.46433 0.61386
head 14.4044 -1.61529 -0.188754
rclavicle 1.26061e-014 2.0276e-014
rhumerus -58.1468 19.701 -89.6087
rradius 35.4613
rwrist -0.683172
rhand -25.1687 -15.3332
rfingers 7.12502
rthumb 1.34861 -45.3087
lclavicle 1.26061e-014 2.0276e-014
lhumerus -52.1399 1.26089 77.6128
lradius 38.04
lwrist -3.93106
lhand -25.8513 33.3044
lfingers 7.12502
lthumb 0.68935 63.283
rfemur -20.9595 4.52737 32.4033
rtibia 25.289
rfoot -27.7582 -12.4296
rtoes -10.0167
lfemur -25.2395 -16.1237 -23.0467
ltibia 31.6923
lfoot -20.0689 -14.999
ltoes -20.9871
76
root -13.882 15.646 2.76143 -165.986 -5.93817 -178.596
lowerback 12.2725 1.84214 0.659476
upperback -8.75643 2.39999 0.966991
thorax -16.9052 0.929079 0.14719
lowerneck -21.573 -1.0065 -1.21243
upperneck 31.2616 -2.7929 0.93157
head 14.394 -1.72246 -0.0600785
rclavicle -2.1975e-014 -1.19271e-015
rhumerus -58.207 19.4216 -89.5115
rradius 35.4934
rwrist -0.500708
rhand -25.0288 -15.3472
rfingers 7.12502
rthumb 1.48372 -45.3218
lclavicle -2.1975e-014 -1.19271e-015
lhumerus -51.7732 0.517702 78.4744
lradius 38.8433
lwrist -4.03601
lhand -25.6813 33.4161
lfingers 7.12502
lthumb 0.853596 63.3941
rfemur -23.2509 4.48548 32.0906
rtibia 28.5749
rfoot -28.3324 -11.5301
rtoes -9.6996
lfemur -27.7274 -15.6889 -23.598
ltibia 35.4802
lfoot -20.7085 -16.4486
ltoes -18.8451
